<?xml version="1.0" encoding="utf-8"?>
<!-- Generator: Adobe Illustrator 21.1.0, SVG Export Plug-In . SVG Version: 6.00 Build 0)  -->
<svg version="1.1" id="Capa_1" xmlns="http://www.w3.org/2000/svg" xmlns:xlink="http://www.w3.org/1999/xlink" x="0px" y="0px"
	 width="512px" height="512px" viewBox="0 0 512 512" style="enable-background:new 0 0 512 512;" xml:space="preserve">
<path d="M256,90c52.3,0,105-13.9,105-45S308.3,0,256,0S151,13.9,151,45S203.7,90,256,90z M256,30c41.5,0,66.6,9.5,73.6,15
	c-7,5.5-32.2,15-73.6,15s-66.6-9.5-73.6-15C189.4,39.5,214.5,30,256,30z"/>
<path d="M45.6,314.9c9.9,59.3,5.1,120.6-13.8,177.4c-1.5,4.6-0.8,9.6,2.1,13.5c2.8,3.9,7.3,6.2,12.2,6.2c41.9,0,78.1-24.6,94.9-60.2
	c34.5-2.3,62.6-27.9,68.8-61.1c18.6-3.5,34.9-14,46.3-29.3c11.4,15.3,27.7,25.8,46.3,29.3c6.2,33.3,34.3,58.9,68.8,61.1
	c16.8,35.5,53.1,60.2,94.9,60.2c4.8,0,9.3-2.3,12.2-6.2c2.8-3.9,3.6-8.9,2.1-13.5c-18.9-56.8-23.7-118.1-13.8-177.4
	c12.1-76.3,14.6-81.5,14.6-99.9c0-36.3-14.1-70.3-39.8-96l-9.2-9.2c-12.8-12.8-29.9-19.9-48-19.9c-29.3,0-55.1,18.6-64.4,46.4
	c-8.7,26.1-33,43.6-60.5,43.6c-0.1,0-6.9,0-6.5,0c-27.5,0-51.8-17.5-60.5-43.6C183,108.6,157.2,90,127.9,90
	c-35.6,0-52.1,25.3-57.1,29C45.1,144.7,31,178.8,31,215C31,233.5,33.8,240.3,45.6,314.9L45.6,314.9z M348.2,145.9
	c5.2-15.5,19.6-25.9,35.9-25.9c10.1,0,19.6,3.9,26.8,11.1l9.2,9.2c20,20,31,46.5,31,74.8c0,14.7-2.2,19.4-14.2,94.9
	c-9.4,56.2-6.5,114.2,8.1,169c-31.1-9.1-53.9-37.9-53.9-72v-91c0-8.3-6.7-15-15-15s-15,6.7-15,15v91c0,4.3,0.3,8.5,0.8,12.7
	c-17.9-6-30.8-22.8-30.8-42.7v-92c0-8.3-6.7-15-15-15s-15,6.7-15,15v74.3c-17.3-6.5-30-23.7-30-43.3V209.3
	C306.5,204.8,336.7,180.5,348.2,145.9z M92,140.2c5.8-4.6,14.8-20.2,35.9-20.2c16.3,0,30.8,10.4,35.9,25.9
	c11.5,34.6,41.7,58.9,77.2,63.4V316c0,19.6-12.7,36.8-30,43.3V285c0-8.3-6.7-15-15-15s-15,6.7-15,15v92c0,19.8-12.9,36.7-30.8,42.7
	c0.5-4.2,0.8-8.4,0.8-12.7v-91c0-8.3-6.7-15-15-15s-15,6.7-15,15v91c0,34-22.8,62.9-53.9,72c14.7-54.9,17.5-112.8,8.1-169
	C62.9,232.6,61,229.6,61,215C61,186.8,72,160.2,92,140.2z"/>
<g>
	<g>
		<path d="M165.5-486.8h-16v-16c0-2.8-1.5-5.4-3.9-6.9l-5.7-3.4c-9.6-5.8-19.8-10.4-30.4-14v-55.8c0-3-1.6-5.7-4.2-7.1
			c-2.6-1.4-5.8-1.2-8.2,0.4l-115.8,77.2l-1.4-0.8c-23.7-14.2-50.8-21.7-78.4-21.7s-54.7,7.5-78.4,21.7l-5.7,3.4
			c-2.4,1.4-3.9,4-3.9,6.9v16h-16c-13.2,0-24,10.8-24,24v296c0,13.2,10.8,24,24,24h368c13.2,0,24-10.8,24-24v-296
			C189.5-476.1,178.7-486.8,165.5-486.8z M105.9-256.2c2.2-1.5,3.6-4,3.6-6.7v-247.3c7.7,2.9,15.1,6.5,22.2,10.7l1.8,1.1v301.6
			c-22.1-11.8-46.8-18.1-72-18.1c-6.5,0-13,0.4-19.4,1.2L105.9-256.2z M-10.5-498.6l104-69.3v300.8l-104,69.3V-498.6z M-170.5-498.3
			l1.8-1.1c21.2-12.7,45.5-19.4,70.2-19.4s49,6.7,70.2,19.4l1.8,1.1v301.6c-22.1-11.8-46.8-18.1-72-18.1s-49.9,6.2-72,18.1V-498.3z
			 M173.5-166.8c0,4.4-3.6,8-8,8h-368c-4.4,0-8-3.6-8-8v-296c0-4.4,3.6-8,8-8h16v288c0,2.9,1.5,5.5,4.1,7c2.5,1.4,5.6,1.4,8.1-0.1
			l5.7-3.4c21.2-12.7,45.5-19.4,70.2-19.4s49,6.7,70.2,19.4l5.7,3.4c0,0,0.1,0,0.1,0.1h0c0,0,0,0,0,0c0.5,0.3,1.1,0.6,1.7,0.7h0h0h0
			c0,0,0,0,0,0h0h0c0.8,0.2,1.4,0.3,2.4,0.3h0c0,0,0,0,0,0s0,0,0,0h0h0h0h0c0.9,0,1.7-0.2,2.6-0.5h0h0h0h0h0h0h0
			c0.5-0.2,0.9-0.4,1.3-0.6l5.7-3.4c21.2-12.7,45.5-19.4,70.2-19.4s49,6.7,70.2,19.4l5.7,3.4c1.3,0.8,2.7,1.1,4.1,1.1
			c1.4,0,2.7-0.3,3.9-1c2.5-1.4,4.1-4.1,4.1-7v-288h16c4.4,0,8,3.6,8,8L173.5-166.8z"/>
		<path d="M-154.5-446.8h112v16h-112V-446.8z"/>
		<path d="M-154.5-318.8h112v16h-112V-318.8z"/>
		<path d="M-154.5-414.8h112v16h-112V-414.8z"/>
		<path d="M-154.5-382.8h40v16h-40V-382.8z"/>
		<path d="M-82.5-382.8h40v16h-40V-382.8z"/>
		<path d="M-154.5-350.8h40v16h-40V-350.8z"/>
		<path d="M-82.5-350.8h40v16h-40V-350.8z"/>
		<path d="M9.4-469.8l56-32l7.9,13.9l-56,32L9.4-469.8z"/>
		<path d="M9.4-429.8l56-32l7.9,13.9l-56,32L9.4-429.8z"/>
		<path d="M9.4-389.8l56-32l7.9,13.9l-56,32L9.4-389.8z"/>
		<path d="M269.5-558.8c0-17.6-14.4-32-32-32c-15.1,0-27.8,10.6-31.1,24.7c-18.7,3.4-32.9,19.7-32.9,39.3v24h16v-24
			c0-10.4,6.7-19.2,16-22.5v382.5c0,0.9,0.2,1.7,0.5,2.5l-0.1,0l16,48c1.1,3.3,4.1,5.5,7.6,5.5v16h16v-16c3.4,0,6.5-2.2,7.6-5.5
			l16-48l-0.1,0c0.3-0.8,0.5-1.6,0.5-2.5V-558.8z M221.5-558.8c0-8.8,7.2-16,16-16s16,7.2,16,16v384h-32V-558.8z M224.6-158.8h25.8
			l-10.7,32h-4.5L224.6-158.8z"/>
	</g>
</g>
<path d="M499.6-508c21.2,0,40.4-10.5,51.9-27.5c5.6,5.3,13,8.7,21.3,9.1c15.4,32.7,48,53.6,84.5,53.6h22.9
	c36.5,0,69.1-20.9,84.5-53.6c8.1-0.5,15.4-3.9,20.9-9.3c11.5,17.2,30.7,27.7,52.1,27.7c6.8,0,12.3-5.5,12.3-12.3v-84.4
	c0-28.7-23.3-52.1-52.1-52.1h-18c-3.1-7.2-10.2-12.2-18.5-12.2h-3.6c-3.6,0-7.2,1-10.2,2.8c-17-17.7-40.9-28.8-67.4-28.8h-22.9
	c-26.5,0-50.5,11.1-67.5,28.9c-3.1-1.9-6.7-2.9-10.4-2.9h-3.6c-8.3,0-15.4,5-18.5,12.2h-18c-28.7,0-52.1,23.4-52.1,52.1v84.4
	C487.3-513.6,492.8-508,499.6-508z M762.7-541.6c-0.5,0-1.1-0.1-1.8-0.2c-3.5-0.5-6.8,1.4-8.1,4.7c-12,29.8-40.5,49-72.6,49h-22.9
	c-32.1,0-60.6-19.3-72.6-49.1c-1.2-2.9-4-4.8-7-4.8c-0.4,0-0.9,0-1.3,0.1c-0.7,0.1-1.3,0.2-1.9,0.2c-9.9,0-17.9-8.1-17.9-17.9v-8.5
	c0-5.9,4.8-10.8,10.8-10.8h4.2c4.2,0,7.6-3.4,7.6-7.6v-0.9c14.8-18.8,37.6-29.9,61.5-29.9h56.4c23.9,0,46.7,11.1,61.5,29.9v0.9
	c0,4.2,3.4,7.6,7.6,7.6h1.9c6.8,0,12.4,5.5,12.4,12.4v7.2C780.3-549.5,772.4-541.6,762.7-541.6z M834.7-604.8v81.5
	c-17.6-1-33-11.6-40.4-27.6c0.7-2.6,1.1-5.4,1.1-8.3v-7.2c0-6.1-2-11.7-5.4-16.3c0,0-0.1-14.1-0.3-15.9c-0.4-4.2-4.1-7.2-8.3-6.8
	c-4.2,0.4-7.2,4.1-6.8,8.3c0.1,1.2,0.2,2.5,0.2,3.7v0.3c-0.4-0.1-0.9-0.2-1.3-0.3v-8.2c0-4.9-0.4-9.7-1.1-14.3
	c5.4-3.6,8.9-9.8,8.9-16.6v-9.1h16.4C818.2-641.7,834.7-625.1,834.7-604.8z M757.7-653.9h3.6c2.7,0,4.9,2.2,4.9,4.9v11.1
	c-2.4-5.6-5.3-11-8.7-16C757.6-653.9,757.7-653.9,757.7-653.9z M657.3-679.8h22.9c40.5,0,73.9,30.9,77.9,70.4
	c-16.8-14.5-38.6-22.8-61.1-22.8h-56.4c-22.6,0-44.3,8.3-61.1,22.8C583.4-648.9,616.8-679.8,657.3-679.8z M575.8-653.9h3.6
	c0.2,0,0.3,0,0.4,0c-3.5,5.2-6.5,10.8-9,16.6V-649C570.9-651.7,573.1-653.9,575.8-653.9z M502.4-604.8c0-20.3,16.5-36.9,36.9-36.9
	h16.4v9.1c0,7,3.6,13.2,9.1,16.8c-0.7,4.6-1.1,9.3-1.1,14.2v7.8c-0.5,0.1-1,0.2-1.6,0.3c0-1.2,0.1-2.4,0.2-3.6
	c0.4-4.2-2.6-7.9-6.8-8.3s-7.9,2.6-8.3,6.8c-0.2,1.7-0.3,14.1-0.3,14.1c-3.7,4.5-5.9,10.2-5.9,16.4v8.5c0,3.2,0.5,6.3,1.3,9.2
	c-7.4,15.7-22.7,26-40.1,27.1V-604.8z"/>
<path d="M643.5-574.7c0,6.2-5,11.3-11.3,11.3c-6.2,0-11.3-5-11.3-11.3c0-6.2,5.1-11.3,11.3-11.3C638.4-586,643.5-581,643.5-574.7z"
	/>
<path d="M716.5-574.7c0,6.2-5.1,11.3-11.3,11.3c-6.2,0-11.3-5-11.3-11.3c0-6.2,5-11.3,11.3-11.3C711.5-586,716.5-581,716.5-574.7z"
	/>
<path d="M702.8-555h-68.1c-3.2,0-6.3,1.4-8.4,3.8c-2.2,2.4-3.2,5.6-2.8,8.8c2.5,23.1,22,40.6,45.3,40.6c23.3,0,42.8-17.4,45.3-40.6
	c0.3-3.2-0.7-6.4-2.8-8.8C709-553.7,706-555,702.8-555z M668.7-517c-14.1,0-26.1-9.6-29.5-22.8h58.9
	C694.8-526.6,682.8-517,668.7-517z"/>
<path d="M902.1-382.7v-8.2c0-51.5-41.9-93.4-93.4-93.4h-22.9c-51.5,0-93.4,41.9-93.4,93.4v7.8c-12.7,1.7-22.6,12.6-22.6,25.7v8.5
	c0,17.7,14,32.2,31.5,33.1c15.4,32.7,48,53.6,84.5,53.6h22.9c36.5,0,69.1-20.9,84.5-53.6c17.1-1,30.8-15.3,30.8-32.7v-7.2
	C924-368.9,914.6-380,902.1-382.7z M785.8-469.1h22.9c40.5,0,73.9,30.9,77.9,70.4c-16.8-14.5-38.6-22.8-61.1-22.8H769
	c-22.6,0-44.3,8.3-61.1,22.8C711.9-438.2,745.3-469.1,785.8-469.1z M908.8-348.5c0,9.7-7.9,17.6-17.6,17.6c-0.5,0-1.1,0-1.8-0.1
	c-3.5-0.5-6.8,1.4-8.1,4.7c-12,29.8-40.5,49-72.6,49h-22.9c-32.1,0-60.6-19.3-72.6-49.1c-1.2-2.9-4-4.8-7-4.8c-0.4,0-0.9,0-1.3,0.1
	c-0.7,0.1-1.3,0.2-1.9,0.2c-9.9,0-17.9-8-17.9-17.9v-8.5c0-5.9,4.8-10.8,10.8-10.8h4.2c4.2,0,7.6-3.4,7.6-7.6v-0.9
	c14.8-18.8,37.6-29.9,61.5-29.9h56.4c23.9,0,46.7,11.1,61.5,29.9v0.9c0,4.2,3.4,7.6,7.6,7.6h1.9c6.8,0,12.4,5.5,12.4,12.4V-348.5z"
	/>
<path d="M772-364c0,6.2-5.1,11.3-11.3,11.3c-6.2,0-11.3-5-11.3-11.3c0-6.2,5.1-11.3,11.3-11.3C766.9-375.3,772-370.3,772-364z"/>
<path d="M845-364c0,6.2-5,11.3-11.3,11.3s-11.3-5-11.3-11.3c0-6.2,5-11.3,11.3-11.3S845-370.3,845-364z"/>
<path d="M831.3-344.3h-68.1c-3.2,0-6.3,1.4-8.4,3.8c-2.1,2.4-3.2,5.6-2.8,8.8c2.5,23.1,22,40.6,45.3,40.6s42.8-17.4,45.3-40.6
	c0.4-3.2-0.7-6.4-2.8-8.8C837.6-343,834.5-344.3,831.3-344.3z M797.2-306.3c-14.1,0-26.1-9.6-29.5-22.8h58.9
	C823.3-315.9,811.3-306.3,797.2-306.3z"/>
<path d="M644.3-382.7v-8.2c0-51.5-41.9-93.4-93.4-93.4H528c-51.5,0-93.4,41.9-93.4,93.4v7.8c-12.7,1.6-22.6,12.6-22.6,25.7v8.5
	c0,17.7,14,32.2,31.5,33.1c15.4,32.7,48,53.6,84.5,53.6h22.9c36.5,0,69.1-20.9,84.5-53.6c17.1-1,30.8-15.3,30.8-32.7v-7.2
	C666.2-368.9,656.8-380,644.3-382.7z M651-348.5c0,9.7-7.9,17.6-17.6,17.6c-0.5,0-1.1,0-1.8-0.1c-3.4-0.5-6.8,1.4-8.1,4.7
	c-12,29.8-40.5,49-72.6,49H528c-32.1,0-60.6-19.3-72.6-49.1c-1.2-2.9-4-4.8-7-4.8c-0.4,0-0.9,0-1.3,0.1c-0.7,0.1-1.3,0.2-1.9,0.2
	c-9.9,0-17.9-8-17.9-17.9v-8.5c0-5.9,4.8-10.8,10.8-10.8h4.2c4.2,0,7.6-3.4,7.6-7.6v-0.9c14.8-18.8,37.6-29.9,61.5-29.9h56.4
	c5.2,0,10.3,0.5,15.3,1.5c4.1,0.8,8.1-1.9,8.9-6c0.8-4.1-1.9-8.1-6-8.9c-6-1.2-12.1-1.8-18.2-1.8h-56.4c-22.6,0-44.3,8.3-61.1,22.8
	c4-39.5,37.4-70.4,77.9-70.4h22.9c40.5,0,73.9,30.9,77.9,70.3c-3.5-3-7.2-5.8-11.1-8.3c-3.5-2.2-8.2-1.2-10.5,2.3
	c-2.2,3.5-1.2,8.2,2.3,10.5c7.6,4.8,14.1,10.8,19.7,17.8v0.8c0,4.2,3.4,7.6,7.6,7.6h1.9c6.8,0,12.4,5.6,12.4,12.4V-348.5z"/>
<path d="M514.2-364c0,6.2-5.1,11.3-11.3,11.3c-6.2,0-11.3-5-11.3-11.3c0-6.2,5.1-11.3,11.3-11.3C509.1-375.3,514.2-370.3,514.2-364z
	"/>
<path d="M587.2-364c0,6.2-5,11.3-11.3,11.3c-6.2,0-11.3-5-11.3-11.3c0-6.2,5.1-11.3,11.3-11.3C582.2-375.3,587.2-370.3,587.2-364z"
	/>
<path d="M573.5-344.3h-68.1c-3.2,0-6.3,1.4-8.4,3.8c-2.2,2.4-3.2,5.6-2.8,8.8c2.5,23.1,22,40.6,45.3,40.6
	c23.3,0,42.8-17.4,45.3-40.6c0.3-3.2-0.7-6.4-2.8-8.8C579.8-343,576.7-344.3,573.5-344.3z M539.4-306.3c-14.1,0-26.1-9.6-29.5-22.8
	h58.9C565.5-315.9,553.5-306.3,539.4-306.3z"/>
<path d="M1454.1-145.3C1454.1-145.3,1454.1-145.3,1454.1-145.3l-136.1,0v-15c0-24.8-20.2-45-45-45h-120c-24.8,0-45,20.2-45,45v15
	H972c-8.4,0-15,6.8-15,15v330c0,24.8,20.2,45,45,45h422c24.8,0,45-20.2,45-45V-130c0,0,0,0,0-0.1
	C1468.5-139.9,1462.4-145.2,1454.1-145.3z M1138-160.3c0-8.3,6.7-15,15-15h120c8.3,0,15,6.7,15,15v15h-150V-160.3z M1433.2-115.3
	l-46.6,139.7c-2,6.1-7.8,10.3-14.2,10.3H1288v-15c0-8.3-6.7-15-15-15h-120c-8.3,0-15,6.7-15,15v15h-84.4c-6.5,0-12.2-4.1-14.2-10.3
	l-46.6-139.7H1433.2z M1258,34.7v30h-90v-30H1258z M1439,199.7c0,8.3-6.7,15-15,15h-422c-8.3,0-15-6.7-15-15V-37.9l23.9,71.8
	c6.1,18.4,23.3,30.8,42.7,30.8h84.4v15c0,8.3,6.7,15,15,15h120c8.3,0,15-6.7,15-15v-15h84.4c19.4,0,36.6-12.4,42.7-30.8l23.9-71.8
	V199.7z"/>
</svg>
